# xmcd CD database file
#
# Track frame offsets:
#	150
#	19412
#	41635
#	59112
#	77790
#	98497
#	118327
#	135657
#	152930
#	173695
#
# Disc length: 2578 seconds
#
# Revision: 0
# Processed by: cddbd v1.5.2PL0 Copyright (c) Steve Scherf et al.
# Submitted via: CDex 1.51
#
DISCID=880a100a
DTITLE=秀蘭瑪雅 - 不能沒有你
DYEAR=2011
DGENRE=Country
TTITLE0=為你寫的詩
TTITLE1=傷腦筋
TTITLE2=不能沒有你 (秀蘭瑪雅+陳冠霖)
TTITLE3=夢中的童話(國)
TTITLE4=愛情憨人
TTITLE5=愛情憨人
TTITLE6=龍之傳人(國)
TTITLE7=雲海
TTITLE8=情深深深深情
TTITLE9=情歌唱乎誰人聽
EXTD=YEAR: 2011
EXTT0=
EXTT1=
EXTT2=
EXTT3=
EXTT4=
EXTT5=
EXTT6=
EXTT7=
EXTT8=
EXTT9=
PLAYORDER=
